<?xml version="1.0" ?><svg id="Layer_1" style="enable-background:new 0 0 48 48;" version="1.1" viewBox="0 0 48 48" xml:space="preserve" xmlns="http://www.w3.org/2000/svg" xmlns:xlink="http://www.w3.org/1999/xlink"><g><path d="M0.2,20.2h7.2v27.4h33.1V20.2h7.2L24,0.5L0.2,20.2z M38.6,18.2v27.4H9.4V18.2H5.8L24,3.1l18.2,15.1H38.6z"/><path d="M21.1,31.7h-2.6v2h2.6V35h-8V23.2h-2v20.3h2V37h8v4.7h11.5V37h2.2v6.4h2V32.7h-2V35h-2.2v-2c0-1.8-1.4-3.2-3.2-3.2h-8.4   V31.7z M23.1,31.8h6.4c0.7,0,1.2,0.5,1.2,1.2v6.7h-7.5V31.8z"/><rect height="2" width="1.8" x="14.7" y="31.7"/><polygon points="23,12 23,15.9 19.1,15.9 19.1,17.9 23,17.9 23,21.8 25,21.8 25,17.9 28.9,17.9 28.9,15.9 25,15.9 25,12  "/></g></svg>