<?xml version="1.0" ?><svg viewBox="0 0 22.52 22.521" xmlns="http://www.w3.org/2000/svg"><g data-name="Layer 2" id="Layer_2"><g data-name="Layer 1" id="Layer_1-2"><path d="M21.269,0H1.251A1.252,1.252,0,0,0,0,1.251V18.539a1.253,1.253,0,0,0,1.251,1.252H6.824v2.047H4.436a.342.342,0,1,0,0,.683H18.084a.342.342,0,0,0,0-.683H15.7V19.791h5.574a1.253,1.253,0,0,0,1.251-1.252V1.251A1.252,1.252,0,0,0,21.269,0ZM15.013,21.838H7.507V19.791h7.506Zm6.824-3.3a.569.569,0,0,1-.568.569H1.251a.569.569,0,0,1-.569-.569V17.061H21.837Zm0-2.161H.682V1.251A.569.569,0,0,1,1.251.682H21.269a.569.569,0,0,1,.568.569ZM18.88,10.953V5.573a2.616,2.616,0,0,0-5.232,0v7.052a1.936,1.936,0,0,1-1.933,1.933H9.44a1.936,1.936,0,0,1-1.934-1.933V11.584a4.44,4.44,0,0,0,4.1-4.419V4.436a1.706,1.706,0,0,0-1.108-1.593.641.641,0,1,0-.144.68,1.021,1.021,0,0,1,.569.913V7.165a3.753,3.753,0,0,1-7.506,0V4.436a1.021,1.021,0,0,1,.569-.913.641.641,0,1,0-.144-.68A1.706,1.706,0,0,0,2.729,4.436V7.165a4.439,4.439,0,0,0,4.1,4.419v1.041A2.619,2.619,0,0,0,9.44,15.241h2.275a2.62,2.62,0,0,0,2.616-2.616V5.573a1.934,1.934,0,0,1,3.867,0v5.38a2.158,2.158,0,1,0,.682,0Zm-.341,3.605a1.479,1.479,0,0,1,0-2.957A1.479,1.479,0,0,1,18.539,14.558Zm0-1.137a.342.342,0,0,1,0-.683A.342.342,0,0,1,18.539,13.421Z" data-name="online diagnosis" id="online_diagnosis"/></g></g></svg>